<svg width="15" height="20" viewBox="0 0 15 20" fill="none" xmlns="http://www.w3.org/2000/svg">
<path d="M7.36842 12.6316C9.15789 12.6316 10.5263 11.2632 10.5263 9.47368V3.15789C10.5263 1.36842 9.15789 0 7.36842 0C5.57894 0 4.21052 1.36842 4.21052 3.15789V9.47368C4.21052 11.2632 5.57894 12.6316 7.36842 12.6316ZM12.9474 9.47368C12.9474 12.6316 10.3158 14.8421 7.36842 14.8421C4.42105 14.8421 1.78947 12.6316 1.78947 9.47368H0C0 13.0526 2.8421 16 6.31579 16.5263V20H8.42105V16.5263C11.8947 16 14.7368 13.0527 14.7368 9.47368H12.9474Z" fill="#EEC302"/>
</svg>
