<svg width="20" height="19" viewBox="0 0 20 19" fill="none" xmlns="http://www.w3.org/2000/svg">
<path d="M15.7272 0.0314293C14.8539 0.142523 14.0588 0.596195 13.4362 1.21873L4.18285 10.4721C3.775 10.8799 3.46309 11.3923 3.36945 11.9615C3.07793 13.7339 4.59422 15.2521 6.36766 14.9649C6.93687 14.8727 7.4498 14.5619 7.85754 14.1542L16.3004 5.71127C16.4632 5.54854 16.4632 5.28475 16.3004 5.12202L15.7113 4.53287C15.5486 4.37014 15.2848 4.37014 15.122 4.53287L6.59504 13.0599C6.41844 13.2361 6.18367 13.3333 5.9334 13.3333C5.41867 13.3333 4.99996 12.9138 4.99996 12.3983C4.99996 12.1492 5.09723 11.9149 5.2734 11.7383L14.7261 2.28553C15.1253 1.88639 15.6559 1.66666 16.2203 1.66666C17.3853 1.66666 18.3334 2.61475 18.3334 3.80858C18.3334 4.35952 18.1226 4.88116 17.7393 5.27748L7.88629 15.4706C7.28988 16.0876 6.51613 16.5365 5.66426 16.6398C3.4052 16.9137 1.49359 15.058 1.67914 12.7596C1.74949 11.8883 2.17867 11.0831 2.79684 10.4649L11.9613 1.30045C12.124 1.13772 12.124 0.873929 11.9613 0.711195L11.3721 0.122054C11.2094 -0.0406801 10.9456 -0.0406801 10.7829 0.122054L1.52953 9.37541C0.543438 10.3615 0.000273512 11.6721 7.48339e-08 13.1106C-0.0002343 14.4586 0.550078 15.7689 1.49582 16.7295C3.76723 19.0367 7.09285 18.6887 8.97664 16.7407L18.9376 6.43553C19.6228 5.72713 20 4.79412 20 3.77971C20 1.53334 18.0302 -0.261579 15.7272 0.0314293Z" fill="#EEC302"/>
</svg>
